<?xml version="1.0" encoding="utf-8"?>
<!-- Generator: Adobe Illustrator 16.0.0, SVG Export Plug-In . SVG Version: 6.00 Build 0)  -->
<!DOCTYPE svg PUBLIC "-//W3C//DTD SVG 1.1//EN" "http://www.w3.org/Graphics/SVG/1.1/DTD/svg11.dtd">
<svg version="1.1"
	 id="svg2" xmlns:dc="http://purl.org/dc/elements/1.1/" xmlns:cc="http://creativecommons.org/ns#" xmlns:rdf="http://www.w3.org/1999/02/22-rdf-syntax-ns#" xmlns:svg="http://www.w3.org/2000/svg" xmlns:sodipodi="http://sodipodi.sourceforge.net/DTD/sodipodi-0.dtd" xmlns:inkscape="http://www.inkscape.org/namespaces/inkscape" inkscape:version="0.48.4 r9939" sodipodi:docname="arrow_sprint_icon_new.svg"
	 xmlns="http://www.w3.org/2000/svg" xmlns:xlink="http://www.w3.org/1999/xlink" x="0px" y="0px" width="434.138px"
	 height="613.995px" viewBox="161.138 227.895 434.138 613.995" enable-background="new 161.138 227.895 434.138 613.995"
	 xml:space="preserve">
<sodipodi:namedview  pagecolor="#ffffff" bordercolor="#666666" borderopacity="1.0" inkscape:zoom="0.49497475" inkscape:cx="1021.0541" inkscape:cy="403.78232" showgrid="false" id="base" inkscape:pageopacity="0.0" inkscape:pageshadow="2" inkscape:document-units="px" inkscape:current-layer="layer1-1" inkscape:window-width="1920" inkscape:window-height="1018" inkscape:window-x="-8" inkscape:window-y="-8" inkscape:window-maximized="1">
	</sodipodi:namedview>
<g id="layer1" inkscape:label="Ebene 1" inkscape:groupmode="layer">
	<g id="layer1-1" transform="translate(39.713786,174.32733)">
		<path id="path3815" inkscape:connector-curvature="0" fill="none" stroke="#010202" stroke-width="1.3003" d="M313.79,160.005"/>
		<path id="path3823" inkscape:connector-curvature="0" fill="none" stroke="#010202" stroke-width="1.3003" d="M313.79,160.005"/>
		<path id="path3837" inkscape:connector-curvature="0" fill="none" stroke="#010202" stroke-width="1.3003" d="M313.79,160.005"/>
		<path id="path3853" inkscape:connector-curvature="0" fill="none" stroke="#010202" stroke-width="1.3003" d="M313.79,160.005"/>
		<path id="path4830" inkscape:connector-curvature="0" fill="none" d="M429.635,325.499L429.635,325.499L429.635,325.499
			c0,63.982-51.866,115.848-115.845,115.848c-63.98,0-115.846-51.865-115.846-115.848"/>
		<path id="path3917_3_" inkscape:connector-curvature="0" fill="none" d="M429.63,324.282c0.004,0.406,0.005,0.811,0.005,1.217"/>
		<path id="path3917_2_" inkscape:connector-curvature="0" fill="none" d="M276.182,215.895c11.792-4.045,24.445-6.241,37.608-6.241
			c18.815,0,36.584,4.485,52.293,12.446"/>
		<path id="path3917" inkscape:connector-curvature="0" fill="none" d="M197.944,325.499L197.944,325.499
			c0-4.305,0.236-8.553,0.693-12.736"/>
		<path id="path4823" inkscape:connector-curvature="0" fill="none" d="M473.768,325.499L473.768,325.499L473.768,325.499
			L473.768,325.499c0,88.355-71.624,159.98-159.978,159.98c-88.353,0-159.978-71.625-159.978-159.98"/>
		<path id="path4807_3_" inkscape:connector-curvature="0" fill="none" d="M473.766,324.42c0.002,0.359,0.002,0.719,0.002,1.078"/>
		<path id="path4807_2_" inkscape:connector-curvature="0" fill="none" d="M259.041,175.137c17.08-6.223,35.518-9.614,54.749-9.614
			c25.968,0,50.493,6.187,72.174,17.17"/>
		<path id="path4807" inkscape:connector-curvature="0" fill="none" d="M153.814,325.499L153.814,325.499
			c0-5.875,0.318-11.68,0.936-17.395"/>
		<path id="path4836" inkscape:connector-curvature="0" fill="none" d="M429.635,325.499l22.068-16.549l22.063,16.549"/>
		<path id="path4836-7" inkscape:connector-curvature="0" fill="none" d="M276.818,215.685l-23.734-14.053l6.846-26.719"/>
		<path id="path4939" inkscape:connector-curvature="0" fill="none" d="M471.909,418.047c17.35,7.736,29.442,25.139,29.442,45.365
			c0,27.42-22.226,49.646-49.647,49.646c-20.782,0-38.585-12.77-45.983-30.889"/>
		<path id="path4949_1_" inkscape:connector-curvature="0" fill="none" d="M481.761,398.282
			c24.593,11.369,41.656,36.256,41.656,65.131l0,0c0,39.605-32.108,71.713-71.714,71.713c-29.886,0-55.5-18.277-66.273-44.266"/>
		<path id="path4836-6" inkscape:connector-curvature="0" fill="none" d="M386.091,491.598l7.025-11.867l13.359,3.424"/>
		<path id="path3105" inkscape:connector-curvature="0" fill="none" d="M364.645,222.622l20.772-41.339"/>
		<path id="path3107" inkscape:connector-curvature="0" fill="none" d="M153.569,309.11l46.045,4.811"/>
		<path id="path3124_1_" inkscape:connector-curvature="0" fill="none" d="M471.44,419.051l10.801-21.744"/>
		<path id="path3814" inkscape:connector-curvature="0" fill="#1B4079" d="M361.635,218.753c-4.419-2.396-19.846-6.975-28.436-8.438
			c-15.535-2.647-41.275-1.19-52.148,2.951c-1.133,0.432-2.666,0.786-3.408,0.786c-1.076,0-13.471-6.914-21.707-12.108l-1.549-0.976
			l3.169-12.25c1.743-6.737,3.427-12.484,3.745-12.771c1.028-0.933,9.9-3.569,18.148-5.394c26.021-5.756,52.373-4.999,77.576,2.23
			c8.812,2.526,22.826,7.781,25.007,9.375c1.037,0.758,0.09,3.029-8.053,19.305c-5.076,10.145-9.474,18.433-9.774,18.417
			C363.904,219.864,362.749,219.357,361.635,218.753L361.635,218.753z"/>
		<path id="path3816" inkscape:connector-curvature="0" fill="#1B4079" d="M298.658,483.71c-31.062-3.16-62.667-16.375-86.291-36.08
			c-11.944-9.963-25.402-25.436-33.652-38.689c-11.955-19.207-20.414-43.953-22.849-66.848c-0.803-7.553-0.8-30.613,0.005-31.326
			c0.201-0.18,8.933,0.6,19.404,1.732c10.471,1.131,19.758,2.074,20.638,2.096c1.553,0.039,1.587,0.23,1.188,6.447
			c-0.753,11.705,1.573,28.355,5.753,41.188c12.05,36.992,43.976,66.93,81.523,76.445c13.625,3.453,33.882,4.469,46.965,2.352
			c44.34-7.172,79.561-36.986,93.37-79.047c3.215-9.789,5.737-23.26,5.743-30.668l0.004-4.922l10.224-7.709
			c5.625-4.238,10.579-7.707,11.01-7.707c0.433,0,5.37,3.455,10.975,7.682l10.191,7.682l-0.379,6.414
			c-1.349,22.953-6.51,42.76-16.363,62.795c-23.107,46.98-67.373,79.283-119.385,87.121c-9.616,1.451-28.902,1.979-38.076,1.043
			H298.658z"/>
		<path id="path3818" inkscape:connector-curvature="0" fill="#1B4079" d="M437.719,532.62c-14.904-3.369-26.246-9.717-36.56-20.459
			c-5.851-6.096-9.332-10.85-12.482-17.051l-1.568-3.084l3.381-5.564c1.857-3.063,3.753-5.434,4.211-5.268
			c0.458,0.164,3.065,0.896,5.794,1.625c4.951,1.32,4.963,1.33,7.28,5.787c3.421,6.578,13.368,16.145,20.44,19.656
			c25.668,12.75,55.701,3.287,68.396-21.549c7.354-14.389,7.438-31.926,0.218-46.24c-4.497-8.918-12.289-17.141-20.018-21.129
			c-1.61-0.83-3.03-1.6-3.156-1.709c-0.206-0.178,7.72-16.432,8.344-17.109c0.927-1.008,13.108,6.814,18.506,11.885
			c4.27,4.012,10.972,13.34,14.384,20.025c8.471,16.59,9.554,37.758,2.851,55.672c-7.785,20.803-24.878,36.51-46.935,43.125
			c-5.438,1.631-8.153,1.973-17.424,2.189C445.625,533.602,441.022,533.366,437.719,532.62L437.719,532.62L437.719,532.62z"/>
	</g>
</g>
</svg>
