<?xml version="1.0" encoding="UTF-8" standalone="no"?>
<!-- Generator: Adobe Illustrator 16.0.0, SVG Export Plug-In . SVG Version: 6.00 Build 0)  -->

<svg
   xmlns:dc="http://purl.org/dc/elements/1.1/"
   xmlns:cc="http://creativecommons.org/ns#"
   xmlns:rdf="http://www.w3.org/1999/02/22-rdf-syntax-ns#"
   xmlns:svg="http://www.w3.org/2000/svg"
   xmlns="http://www.w3.org/2000/svg"
   xmlns:sodipodi="http://sodipodi.sourceforge.net/DTD/sodipodi-0.dtd"
   xmlns:inkscape="http://www.inkscape.org/namespaces/inkscape"
   version="1.1"
   id="svg2"
   sodipodi:docname="backlog_icon.svg"
   inkscape:version="0.48.4 r9939"
   x="0px"
   y="0px"
   width="595.275px"
   height="841.891px"
   viewBox="0 0 595.275 841.891"
   enable-background="new 0 0 595.275 841.891"
   xml:space="preserve"><metadata
   id="metadata5462"><rdf:RDF><cc:Work
       rdf:about=""><dc:format>image/svg+xml</dc:format><dc:type
         rdf:resource="http://purl.org/dc/dcmitype/StillImage" /></cc:Work></rdf:RDF></metadata><defs
   id="defs5460" />
<sodipodi:namedview
   showgrid="true"
   inkscape:cy="297.25799"
   inkscape:cx="207.35343"
   inkscape:zoom="1.4142136"
   borderopacity="1.0"
   bordercolor="#666666"
   pagecolor="#ffffff"
   id="base"
   inkscape:window-maximized="1"
   inkscape:window-y="-9"
   inkscape:window-x="-9"
   inkscape:window-height="1003"
   inkscape:window-width="1920"
   inkscape:current-layer="layer1"
   inkscape:document-units="px"
   inkscape:pageshadow="2"
   inkscape:pageopacity="0.0"
   inkscape:snap-global="true">
	<inkscape:grid
   type="xygrid"
   id="grid3781" />
</sodipodi:namedview>
<g
   id="layer1"
   inkscape:label="Ebene 1"
   inkscape:groupmode="layer">
	<rect
   id="rect3785"
   x="45.209"
   y="202.937"
   fill="none"
   stroke="#000000"
   width="504.857"
   height="68.844"
   style="stroke:none" />
	<rect
   id="rect3805"
   x="45.209"
   y="294.729"
   fill="none"
   stroke="#000000"
   width="504.857"
   height="68.844"
   style="stroke:none" />
	<rect
   id="rect3807"
   x="45.209"
   y="386.522"
   fill="none"
   stroke="#000000"
   width="504.857"
   height="68.844"
   style="stroke:none" />
	<rect
   id="rect3809"
   x="45.209"
   y="478.316"
   fill="none"
   stroke="#000000"
   width="504.857"
   height="68.844"
   style="stroke:none" />
	<rect
   id="rect3811"
   x="45.209"
   y="570.107"
   fill="none"
   stroke="#000000"
   width="504.857"
   height="68.846"
   style="stroke:none" />
<path
   style="fill:#f03a47;fill-opacity:1;stroke:none"
   d="m 46.133086,237.16545 0,-33.58758 251.376454,0 251.37645,0 0,33.58758 0,33.58757 -251.37645,0 -251.376454,0 0,-33.58757 z"
   id="path5464"
   inkscape:connector-curvature="0"
   transform="translate(-1.5314268e-5,0)" /><path
   style="fill:#f03a47;fill-opacity:1;stroke:none"
   d="m 45.991665,329.08932 0,-33.58757 251.730005,0 251.73001,0 0,33.58757 0,33.58758 -251.73001,0 -251.730005,0 0,-33.58758 z"
   id="path5974"
   inkscape:connector-curvature="0"
   transform="translate(-1.5314268e-5,0)" /><path
   style="fill:#f03a47;fill-opacity:1;stroke:none"
   d="m 45.991665,421.0132 0,-33.58757 251.730005,0 251.73001,0 0,33.58757 0,33.58758 -251.73001,0 -251.730005,0 0,-33.58758 z"
   id="path5976"
   inkscape:connector-curvature="0"
   transform="translate(-1.5314268e-5,0)" /><path
   style="fill:#f03a47;fill-opacity:1;stroke:none"
   d="m 45.991665,512.93708 0,-33.58757 251.730005,0 251.73001,0 0,33.58757 0,33.58757 -251.73001,0 -251.730005,0 0,-33.58757 z"
   id="path5978"
   inkscape:connector-curvature="0"
   transform="translate(-1.5314268e-5,0)" /><path
   style="fill:#f03a47;fill-opacity:1;stroke:none"
   d="m 45.991665,604.86096 0,-33.58757 251.730005,0 251.73001,0 0,33.58757 0,33.58757 -251.73001,0 -251.730005,0 0,-33.58757 z"
   id="path5980"
   inkscape:connector-curvature="0"
   transform="translate(-1.5314268e-5,0)" /></g>
</svg>