<?xml version="1.0" encoding="UTF-8" standalone="no"?>
<!-- Created with Inkscape (http://www.inkscape.org/) -->

<svg
   xmlns:dc="http://purl.org/dc/elements/1.1/"
   xmlns:cc="http://creativecommons.org/ns#"
   xmlns:rdf="http://www.w3.org/1999/02/22-rdf-syntax-ns#"
   xmlns:svg="http://www.w3.org/2000/svg"
   xmlns="http://www.w3.org/2000/svg"
   xmlns:sodipodi="http://sodipodi.sourceforge.net/DTD/sodipodi-0.dtd"
   xmlns:inkscape="http://www.inkscape.org/namespaces/inkscape"
   width="210mm"
   height="297mm"
   id="svg2"
   version="1.1"
   inkscape:version="0.48.4 r9939"
   sodipodi:docname="bag_icon_new.svg">
  <defs
     id="defs4" />
  <sodipodi:namedview
     id="base"
     pagecolor="#ffffff"
     bordercolor="#666666"
     borderopacity="1.0"
     inkscape:pageopacity="0.0"
     inkscape:pageshadow="2"
     inkscape:zoom="0.7"
     inkscape:cx="128.77203"
     inkscape:cy="658.7162"
     inkscape:document-units="px"
     inkscape:current-layer="g2998"
     showgrid="false"
     inkscape:window-width="1920"
     inkscape:window-height="1003"
     inkscape:window-x="-9"
     inkscape:window-y="-9"
     inkscape:window-maximized="1" />
  <metadata
     id="metadata7">
    <rdf:RDF>
      <cc:Work
         rdf:about="">
        <dc:format>image/svg+xml</dc:format>
        <dc:type
           rdf:resource="http://purl.org/dc/dcmitype/StillImage" />
        <dc:title></dc:title>
      </cc:Work>
    </rdf:RDF>
  </metadata>
  <g
     inkscape:label="Ebene 1"
     inkscape:groupmode="layer"
     id="layer1">
    <g
       id="g2998"
       transform="translate(215.39,12.278258)">
      <path
         style="fill:#e6e6e6;fill-opacity:1;stroke:none"
         id="path2999"
         d="m -193.99626,26.120445 h 90.69023 c 0.92981,0 1.67945,0.836975 1.67945,1.880674 V 159.63847 c 0,1.04064 -0.74964,1.88036 -1.67945,1.88036 h -90.69023 c -0.92981,0 -1.67946,-0.83972 -1.67946,-1.88036 V 28.001119 c 0,-1.043699 0.74933,-1.880674 1.67946,-1.880674 z"
         inkscape:connector-curvature="0" />
      <path
         id="path3001"
         d="m -162.08674,26.120445 c 0,-8.310222 6.01579,-15.044198 13.43559,-15.044198 7.4198,0 13.43559,6.733976 13.43559,15.044198"
         inkscape:connector-curvature="0"
         style="fill:none;stroke:none" />
      <path
         style="fill:none;stroke:none"
         inkscape:connector-curvature="0"
         id="path3003"
         d="m -169.87087,26.088258 c 0,-13.123814 9.50103,-23.7602947 21.21972,-23.7602947 11.7183,0 21.21972,10.6364807 21.21972,23.7602947" />
      <g
         transform="matrix(0.39129427,0,0,0.39129427,-194.24786,17.079707)"
         id="Layer_1-1">
        <circle
           style="fill:#346791"
           sodipodi:ry="72.000999"
           sodipodi:rx="72.000999"
           sodipodi:cy="180.05099"
           sodipodi:cx="115.616"
           d="m 187.617,180.05099 c 0,39.76506 -32.23595,72.001 -72.001,72.001 -39.765057,0 -72.001002,-32.23594 -72.001002,-72.001 0,-39.76505 32.235945,-72.00099 72.001002,-72.00099 39.76505,0 72.001,32.23594 72.001,72.00099 z"
           id="circle3035"
           r="72.000999"
           cy="180.05099"
           cx="115.616" />
        <circle
           style="fill:#e6e6e6"
           sodipodi:ry="44.5"
           sodipodi:rx="44.5"
           sodipodi:cy="198.364"
           sodipodi:cx="99.341003"
           d="m 143.841,198.364 c 0,24.57667 -19.92333,44.5 -44.499997,44.5 -24.576671,0 -44.5,-19.92333 -44.5,-44.5 0,-24.57667 19.923329,-44.5 44.5,-44.5 24.576667,0 44.499997,19.92333 44.499997,44.5 z"
           id="circle3037"
           r="44.5"
           cy="198.364"
           cx="99.341003" />
        <circle
           style="fill:#1b4079"
           sodipodi:ry="27.5"
           sodipodi:rx="27.5"
           sodipodi:cy="208.608"
           sodipodi:cx="89.792999"
           d="m 117.293,208.608 c 0,15.18783 -12.31217,27.5 -27.500001,27.5 -15.18783,0 -27.5,-12.31217 -27.5,-27.5 0,-15.18783 12.31217,-27.5 27.5,-27.5 15.187831,0 27.500001,12.31217 27.500001,27.5 z"
           id="circle3039"
           r="27.5"
           cy="208.608"
           cx="89.792999" />
      </g>
      <path
         inkscape:connector-curvature="0"
         id="path3872"
         d="m -169.60838,25.126428 c 0.0402,-0.4392 0.11247,-1.277673 0.16055,-1.86327 0.12846,-1.564788 0.63931,-3.878283 1.24063,-5.618484 2.34466,-6.78553 7.52804,-12.0979834 13.8024,-14.1461445 3.39263,-1.1074603 7.36461,-1.1857813 10.8117,-0.2131872 6.11821,1.7262437 11.23886,6.4755645 13.996,12.9810497 0.99252,2.341838 1.89882,6.515826 1.89882,8.744957 l 0,0.913622 -3.62962,0 -3.62963,0 -0.17771,-1.579245 c -0.48841,-4.340499 -2.37009,-7.962257 -5.47608,-10.540102 -1.17375,-0.974166 -3.60835,-2.199121 -5.0749,-2.553411 -3.3361,-0.80594 -6.96736,-0.167349 -9.86485,1.734813 -1.46165,0.959558 -3.49646,3.102479 -4.43447,4.670084 -1.24641,2.082977 -2.24025,5.42228 -2.24025,7.527265 l 0,0.740596 -3.72785,0 -3.72787,0 0.0732,-0.798543 0,0 z"
         style="fill:#346791;fill-opacity:1;stroke:none" />
    </g>
  </g>
</svg>
