<?xml version="1.0" encoding="UTF-8" standalone="no"?>
<!-- Generator: Adobe Illustrator 16.0.0, SVG Export Plug-In . SVG Version: 6.00 Build 0)  -->

<svg
   xmlns:dc="http://purl.org/dc/elements/1.1/"
   xmlns:cc="http://creativecommons.org/ns#"
   xmlns:rdf="http://www.w3.org/1999/02/22-rdf-syntax-ns#"
   xmlns:svg="http://www.w3.org/2000/svg"
   xmlns="http://www.w3.org/2000/svg"
   xmlns:sodipodi="http://sodipodi.sourceforge.net/DTD/sodipodi-0.dtd"
   xmlns:inkscape="http://www.inkscape.org/namespaces/inkscape"
   version="1.1"
   id="svg2"
   sodipodi:docname="daily_scrum_icon.svg"
   inkscape:version="0.48.4 r9939"
   x="0px"
   y="0px"
   width="289.485px"
   height="409.415px"
   viewBox="132.237 187.02 289.485 409.415"
   enable-background="new 132.237 187.02 289.485 409.415"
   xml:space="preserve"><metadata
   id="metadata4910"><rdf:RDF><cc:Work
       rdf:about=""><dc:format>image/svg+xml</dc:format><dc:type
         rdf:resource="http://purl.org/dc/dcmitype/StillImage" /></cc:Work></rdf:RDF></metadata><defs
   id="defs4908" />
<sodipodi:namedview
   showgrid="true"
   inkscape:cy="214.62312"
   inkscape:cx="158.04941"
   inkscape:zoom="4"
   borderopacity="1.0"
   bordercolor="#666666"
   pagecolor="#ffffff"
   id="base"
   inkscape:window-maximized="1"
   inkscape:window-y="-9"
   inkscape:window-x="-9"
   inkscape:window-height="1003"
   inkscape:window-width="1920"
   inkscape:current-layer="layer1"
   inkscape:document-units="px"
   inkscape:pageshadow="2"
   inkscape:pageopacity="0.0"
   inkscape:object-paths="true"
   inkscape:snap-grids="false">
	<inkscape:grid
   type="xygrid"
   id="grid2985" />
</sodipodi:namedview>
<g
   id="layer1"
   inkscape:label="Ebene 1"
   inkscape:groupmode="layer">
	<path
   id="path3872"
   fill="none"
   stroke="#000000"
   d="M247.986,392.041c-15.043-9.814-24.985-26.794-24.985-46.096   c0-30.376,24.624-55,55-55c30.375,0,55,24.624,55,55l0,0c0,19.302-9.943,36.281-24.986,46.096"
   style="stroke:none" />
	<path
   id="path3007"
   inkscape:connector-curvature="0"
   fill="none"
   stroke="#000000"
   d="M248.001,390.945v35"
   style="stroke:none" />
	<path
   id="path3009"
   inkscape:connector-curvature="0"
   fill="none"
   stroke="#000000"
   d="M308.001,390.945v35"
   style="stroke:none" />
	<path
   id="path3031"
   inkscape:connector-curvature="0"
   fill="none"
   stroke="#000000"
   d="M248.001,425.945h-80"
   style="stroke:none" />
	<path
   id="path3035"
   inkscape:connector-curvature="0"
   fill="none"
   stroke="#000000"
   d="M308.001,425.945h80"
   style="stroke:none" />
	<path
   id="path3045"
   fill="none"
   stroke="#000000"
   d="M153.001,440.945L153.001,440.945c0-8.284,6.716-15,15-15"
   style="stroke:none" />
	<path
   id="path3049"
   fill="none"
   stroke="#000000"
   d="M388.001,425.945L388.001,425.945c8.283,0,15,6.716,15,15"
   style="stroke:none" />
	<rect
   id="rect3055"
   x="248.001"
   y="385.945"
   fill="none"
   width="60"
   height="20" />
<path
   style="fill:none;stroke:none;stroke-width:1px;stroke-linecap:butt;stroke-linejoin:miter;stroke-opacity:1"
   d="m 20.763999,253.925 249.999991,0"
   id="path4916"
   inkscape:connector-curvature="0"
   transform="translate(132.237,187.01999)" /><path
   style="fill:#346791;fill-opacity:1;stroke:#000000;stroke-width:0;stroke-miterlimit:4;stroke-opacity:1;stroke-dasharray:none;stroke-linejoin:miter"
   d="m 21.549412,252.3084 c 0,-1.39453 0.836828,-3.9093 1.880568,-5.65133 1.740955,-2.9057 4.286655,-4.9739 7.809044,-6.3443 l 1.685388,-0.6557 41.334691,-0.0668 c 35.189337,-0.0569 41.387147,-0.11929 41.687497,-0.41965 0.29704,-0.29703 0.35281,-3.12227 0.35281,-17.87066 l 0,-17.51786 -0.56696,0 c -1.57194,0 -8.63638,-6.23885 -12.45564,-11 -4.9996,-6.23259 -9.129537,-14.9717 -10.69214,-22.625 -1.677797,-8.21751 -1.47002,-17.0979 0.58414,-24.96607 3.33492,-12.77392 11.63611,-24.31564 22.76678,-31.65419 21.82051,-14.386476 50.82629,-11.13923 68.92416,7.71617 8.22695,8.57131 13.25672,19.05935 14.80517,30.87164 0.43999,3.3564 0.49984,9.48035 0.12494,12.78245 -1.17932,10.38719 -5.61348,20.76835 -12.28014,28.75 -3.84529,4.60377 -10.25158,10.125 -11.74806,10.125 l -0.71225,0 0,17.51786 c 0,14.84881 0.0544,17.57227 0.35715,17.875 0.3066,0.3066 6.12085,0.35714 41.08501,0.35714 39.74078,0 40.77466,0.012 42.65884,0.49386 2.68005,0.68544 4.74257,1.85015 6.65156,3.75614 2.34317,2.33949 4.24744,6.28595 4.24744,8.80252 l 0,0.69748 -124.25,0 -124.249998,0 0,-0.97367 z"
   id="path4918"
   inkscape:connector-curvature="0"
   transform="translate(132.237,187.01999)" /></g>
</svg>