<?xml version="1.0" encoding="UTF-8" standalone="no"?>
<!-- Generator: Adobe Illustrator 16.0.4, SVG Export Plug-In . SVG Version: 6.00 Build 0)  -->

<svg
   xmlns:dc="http://purl.org/dc/elements/1.1/"
   xmlns:cc="http://creativecommons.org/ns#"
   xmlns:rdf="http://www.w3.org/1999/02/22-rdf-syntax-ns#"
   xmlns:svg="http://www.w3.org/2000/svg"
   xmlns="http://www.w3.org/2000/svg"
   xmlns:sodipodi="http://sodipodi.sourceforge.net/DTD/sodipodi-0.dtd"
   xmlns:inkscape="http://www.inkscape.org/namespaces/inkscape"
   version="1.1"
   x="0px"
   y="0px"
   width="905.666px"
   height="358.833px"
   viewBox="0 0 905.666 358.833"
   enable-background="new 0 0 905.666 358.833"
   xml:space="preserve"
   id="svg3032"
   inkscape:version="0.48.4 r9939"
   sodipodi:docname="Logov2.svg"><metadata
   id="metadata3051"><rdf:RDF><cc:Work
       rdf:about=""><dc:format>image/svg+xml</dc:format><dc:type
         rdf:resource="http://purl.org/dc/dcmitype/StillImage" /></cc:Work></rdf:RDF></metadata><defs
   id="defs3049" /><sodipodi:namedview
   pagecolor="#ffffff"
   bordercolor="#666666"
   borderopacity="1"
   objecttolerance="10"
   gridtolerance="10"
   guidetolerance="10"
   inkscape:pageopacity="0"
   inkscape:pageshadow="2"
   inkscape:window-width="640"
   inkscape:window-height="502"
   id="namedview3047"
   showgrid="false"
   inkscape:zoom="0.55318406"
   inkscape:cx="14078.674"
   inkscape:cy="-1710.4928"
   inkscape:window-x="0"
   inkscape:window-y="0"
   inkscape:window-maximized="0"
   inkscape:current-layer="svg3032" />
<g
   id="Layer_1"
   transform="translate(13848.917,1890.8715)">
	<circle
   cx="115.616"
   cy="180.05099"
   r="72.000999"
   id="circle3035"
   d="m 187.617,180.05099 c 0,39.76506 -32.23595,72.001 -72.001,72.001 -39.765057,0 -72.001002,-32.23594 -72.001002,-72.001 0,-39.76505 32.235945,-72.00099 72.001002,-72.00099 39.76505,0 72.001,32.23594 72.001,72.00099 z"
   sodipodi:cx="115.616"
   sodipodi:cy="180.05099"
   sodipodi:rx="72.000999"
   sodipodi:ry="72.000999"
   style="fill:#346791" />
	<circle
   cx="99.341003"
   cy="198.364"
   r="44.5"
   id="circle3037"
   d="m 143.841,198.364 c 0,24.57667 -19.92333,44.5 -44.499997,44.5 -24.576671,0 -44.5,-19.92333 -44.5,-44.5 0,-24.57667 19.923329,-44.5 44.5,-44.5 24.576667,0 44.499997,19.92333 44.499997,44.5 z"
   sodipodi:cx="99.341003"
   sodipodi:cy="198.364"
   sodipodi:rx="44.5"
   sodipodi:ry="44.5"
   style="fill:#e6e6e6" />
	<circle
   cx="89.792999"
   cy="208.608"
   r="27.5"
   id="circle3039"
   d="m 117.293,208.608 c 0,15.18783 -12.31217,27.5 -27.500001,27.5 -15.18783,0 -27.5,-12.31217 -27.5,-27.5 0,-15.18783 12.31217,-27.5 27.5,-27.5 15.187831,0 27.500001,12.31217 27.500001,27.5 z"
   sodipodi:cx="89.792999"
   sodipodi:cy="208.608"
   sodipodi:rx="27.5"
   sodipodi:ry="27.5"
   style="fill:#1b4079" />
</g>
<g
   id="Text">
	<rect
   x="205"
   y="152.833"
   fill="none"
   width="726.666"
   height="221.667"
   id="rect3042" />
	<text
   transform="matrix(1 0 0 1 205 242.6953)"
   fill="#333333"
   font-family="'Oxygen-Bold'"
   font-size="121"
   id="text3044">Scrumbase</text>

</g>
<g
   id="Guide"
   display="none">
</g>
</svg>